<svg id="list.clipboard" xmlns="http://www.w3.org/2000/svg" width="16.787" height="27.061" viewBox="0 0 16.787 27.061">
  <rect id="사각형_24000" data-name="사각형 24000" width="16.787" height="27.06" opacity="0"/>
  <path id="패스_7739" data-name="패스 7739" d="M16.426,6.924v14.8c0,2.051-1.006,3.066-3.027,3.066H3.027C1.006,24.795,0,23.779,0,21.729V6.924C0,4.873,1.006,3.857,3.027,3.857h.129a2.37,2.37,0,0,0-.012.244V5.127a2.116,2.116,0,0,0,.02.3H3.105A1.367,1.367,0,0,0,1.572,6.943V21.709a1.363,1.363,0,0,0,1.533,1.514H13.32a1.363,1.363,0,0,0,1.533-1.514V6.943A1.367,1.367,0,0,0,13.32,5.43h-.059a2.118,2.118,0,0,0,.02-.3V4.1a2.379,2.379,0,0,0-.012-.244H13.4C15.42,3.857,16.426,4.873,16.426,6.924Z" fill="rgba(255,255,255,0.5)"/>
  <path id="패스_7740" data-name="패스 7740" d="M5.2,6.094h6.035a.864.864,0,0,0,.908-.967V4.1a.864.864,0,0,0-.908-.967h-.9a2.123,2.123,0,0,0-4.238,0H5.2a.864.864,0,0,0-.908.967V5.127A.864.864,0,0,0,5.2,6.094ZM8.213,4.063a.855.855,0,1,1,.85-.85A.857.857,0,0,1,8.213,4.063Z" fill="rgba(255,255,255,0.5)"/>
  <path id="패스_7741" data-name="패스 7741" d="M3.906,18.662H8.242a.608.608,0,0,0,.605-.605.6.6,0,0,0-.605-.605H3.906a.611.611,0,0,0-.615.605A.617.617,0,0,0,3.906,18.662Z" fill="rgba(255,255,255,0.5)"/>
  <path id="패스_7742" data-name="패스 7742" d="M3.906,15.01h8.613a.613.613,0,0,0,.615-.615.6.6,0,0,0-.615-.6H3.906a.6.6,0,0,0-.615.6A.613.613,0,0,0,3.906,15.01Z" fill="rgba(255,255,255,0.5)"/>
  <path id="패스_7743" data-name="패스 7743" d="M3.906,11.543h8.613a.617.617,0,0,0,.615-.606.625.625,0,0,0-.615-.615H3.906a.625.625,0,0,0-.615.615A.617.617,0,0,0,3.906,11.543Z" fill="rgba(255,255,255,0.5)"/>
</svg>
