<svg id="chevron.left" xmlns="http://www.w3.org/2000/svg" width="12.393" height="16.963" viewBox="0 0 12.393 16.963">
  <rect id="사각형_23995" data-name="사각형 23995" width="12.393" height="16.963" fill="#fff" opacity="0"/>
  <path id="패스_7732" data-name="패스 7732" d="M0,8.477a.88.88,0,0,0,.273.645L8.018,16.69a.84.84,0,0,0,.635.264.876.876,0,0,0,.9-.889.917.917,0,0,0-.264-.635L2.178,8.477,9.287,1.523A.936.936,0,0,0,9.551.889.9.9,0,0,0,8.018.254L.273,7.832A.864.864,0,0,0,0,8.477Z" fill="#fff"/>
</svg>
