<svg id="house.fill" xmlns="http://www.w3.org/2000/svg" width="24.185" height="21.04" viewBox="0 0 24.185 21.04">
  <rect id="사각형_23898" data-name="사각형 23898" width="24" height="21" transform="translate(0.185)" fill="#fff" opacity="0"/>
  <path id="패스_7686" data-name="패스 7686" d="M9.2,19.344V13.487a.719.719,0,0,1,.767-.757h3.853a.706.706,0,0,1,.757.757v5.857Zm-6.094-.588a2.03,2.03,0,0,0,2.24,2.191H18.441a2.023,2.023,0,0,0,2.23-2.191V10.848L12.486,3.984a.876.876,0,0,0-1.195,0L3.107,10.848ZM.856,10.638a1.155,1.155,0,0,0,.717-.319L11.54,1.942a.577.577,0,0,1,.349-.139.556.556,0,0,1,.349.139l9.977,8.377a1.106,1.106,0,0,0,.707.319.8.8,0,0,0,.538-1.444L13.084.478a1.732,1.732,0,0,0-2.39,0L.319,9.194A.833.833,0,0,0,0,9.842.808.808,0,0,0,.856,10.638ZM18.371,5.349l2.5,2.112V2.968a.669.669,0,0,0-.717-.717H19.088a.674.674,0,0,0-.717.717Z" transform="translate(0 0.092)" fill="#fff"/>
</svg>
