<svg id="square.and.arrow.up" xmlns="http://www.w3.org/2000/svg" width="17.695" height="26.006" viewBox="0 0 17.695 26.006">
  <rect id="사각형_23995" data-name="사각형 23995" width="17.695" height="26.006" fill="#fff" opacity="0"/>
  <path id="패스_7732" data-name="패스 7732" d="M17.334,10.811V20.44c0,2.012-1.025,3.027-3.066,3.027H3.066Q0,23.467,0,20.44V10.811Q0,7.778,3.066,7.783H6.055V9.355H3.086a1.363,1.363,0,0,0-1.514,1.533v9.473a1.363,1.363,0,0,0,1.514,1.533H14.238a1.374,1.374,0,0,0,1.523-1.533V10.889a1.374,1.374,0,0,0-1.523-1.533H11.269V7.783h3C16.309,7.783,17.334,8.8,17.334,10.811Z" fill="#fff"/>
  <path id="패스_7733" data-name="패스 7733" d="M8.662,15.82a.778.778,0,0,0,.781-.752V5.137L9.385,3.682l.547.576,1.5,1.611a.713.713,0,0,0,.527.234.691.691,0,0,0,.488-1.2L9.229,1.8a.734.734,0,0,0-.566-.254A.762.762,0,0,0,8.1,1.8L4.883,4.9a.7.7,0,0,0-.234.518.672.672,0,0,0,.7.684.734.734,0,0,0,.537-.234L7.4,4.258l.547-.576L7.891,5.137v9.932A.769.769,0,0,0,8.662,15.82Z" fill="#fff"/>
</svg>
