<svg id="pause" xmlns="http://www.w3.org/2000/svg" width="8.486" height="16.162" viewBox="0 0 8.486 16.162">
  <rect id="사각형_24002" data-name="사각형 24002" width="8.486" height="16.162" opacity="0"/>
  <path id="패스_7741" data-name="패스 7741" d="M.83,16.152a.823.823,0,0,0,.84-.82V.811A.815.815,0,0,0,.83,0,.813.813,0,0,0,0,.811V15.332A.821.821,0,0,0,.83,16.152Zm6.455,0a.829.829,0,0,0,.84-.82V.811A.821.821,0,0,0,7.285,0a.813.813,0,0,0-.83.811V15.332A.821.821,0,0,0,7.285,16.152Z" fill="rgba(255,255,255,0.85)"/>
</svg>
