<svg id="xmark" xmlns="http://www.w3.org/2000/svg" width="15.847" height="15.496" viewBox="0 0 15.847 15.496">
  <rect id="사각형_24006" data-name="사각형 24006" width="15.847" height="15.496" opacity="0"/>
  <path id="패스_7747" data-name="패스 7747" d="M.253,15.243a.9.9,0,0,0,1.24,0l6.25-6.25,6.25,6.25a.874.874,0,0,0,1.24-1.23l-6.25-6.26,6.25-6.25a.874.874,0,0,0-1.24-1.23l-6.25,6.25L1.493.272a.869.869,0,0,0-1.24,0,.884.884,0,0,0,0,1.23L6.5,7.753l-6.25,6.26A.875.875,0,0,0,.253,15.243Z" fill="rgba(255,255,255,0.85)"/>
</svg>
