<svg xmlns="http://www.w3.org/2000/svg" width="20.922" height="20.568" viewBox="0 0 20.922 20.568">
  <g id="gearshape.fill" transform="translate(0 0)">
    <rect id="사각형_23902" data-name="사각형 23902" width="20.922" height="20.568" transform="translate(0 0)" fill="#fff" opacity="0"/>
    <path id="패스_7695" data-name="패스 7695" d="M9.374,20.558h1.81a.976.976,0,0,0,.993-.807l.512-2.164a9.169,9.169,0,0,0,1.082-.433l1.9,1.161a.973.973,0,0,0,1.259-.128L18.2,16.928a.988.988,0,0,0,.118-1.289l-1.161-1.879a7.337,7.337,0,0,0,.423-1.052l2.184-.521a.968.968,0,0,0,.8-.993V9.413a.964.964,0,0,0-.8-.984L17.6,7.908a9.756,9.756,0,0,0-.423-1.072l1.161-1.908a.96.96,0,0,0-.118-1.259L16.928,2.4a.961.961,0,0,0-1.23-.148l-1.928,1.19A6.517,6.517,0,0,0,12.689,3L12.177.807A.976.976,0,0,0,11.184,0H9.374a.993.993,0,0,0-1,.807L7.859,2.98a7.256,7.256,0,0,0-1.092.452L4.859,2.253A.95.95,0,0,0,3.62,2.4L2.341,3.669a.95.95,0,0,0-.118,1.259L3.374,6.836c-.128.3-.285.669-.413,1.072L.8,8.43a.964.964,0,0,0-.8.984v1.78a.967.967,0,0,0,.8.993l2.184.521a8.638,8.638,0,0,0,.413,1.052L2.243,15.64a.977.977,0,0,0,.118,1.289L3.62,18.187a.986.986,0,0,0,1.269.128l1.889-1.161a9.9,9.9,0,0,0,1.082.433l.511,2.164A.993.993,0,0,0,9.374,20.558Zm.9-6.807a3.472,3.472,0,1,1,3.472-3.472A3.472,3.472,0,0,1,10.279,13.751Z" transform="translate(0 0)" fill="#fff"/>
  </g>
</svg>
