<svg xmlns="http://www.w3.org/2000/svg" width="24.145" height="18.56" viewBox="0 0 24.145 18.56">
  <g id="play.rectangle.fill" transform="translate(0 0)">
    <rect id="사각형_23899" data-name="사각형 23899" width="24.145" height="18.56" transform="translate(0 0)" fill="#fff" opacity="0"/>
    <path id="패스_7687" data-name="패스 7687" d="M23.772,3.125V15.445c0,2.077-1.048,3.115-3.166,3.115H3.166Q.005,18.56,0,15.445V3.125C0,1.048,1.059,0,3.166,0H20.606C22.723,0,23.772,1.048,23.772,3.125ZM8.932,5.676V12.9c0,.5.565.736,1.038.444L15.9,9.86a.648.648,0,0,0,0-1.119L9.97,5.232A.652.652,0,0,0,8.932,5.676Z" transform="translate(0 0)" fill="#fff"/>
  </g>
</svg>
