<svg xmlns="http://www.w3.org/2000/svg" width="29.708" height="19.175" viewBox="0 0 29.708 19.175">
  <g id="pano.badge.play.fill" transform="translate(0 0)">
    <rect id="사각형_23900" data-name="사각형 23900" width="29.708" height="19.175" transform="translate(0 0)" fill="#fff" opacity="0"/>
    <path id="패스_7688" data-name="패스 7688" d="M25.811,4.988V9.772a5.084,5.084,0,0,0-5.051,5.05,4.749,4.749,0,0,0,.138,1.15,17.937,17.937,0,0,0-5.024-.679c-4.956,0-7.168,1.725-8.619,1.725a1.232,1.232,0,0,1-1.318-1.4V4.98a1.232,1.232,0,0,1,1.318-1.4c1.451,0,3.678,1.725,8.619,1.725s7.176-1.725,8.619-1.725A1.235,1.235,0,0,1,25.811,4.988Z" transform="translate(-1.169 -0.706)" fill="#fff"/>
    <path id="패스_7689" data-name="패스 7689" d="M33.7,16.6a3.984,3.984,0,1,1-3.984-3.984A4.026,4.026,0,0,1,33.7,16.6Zm-5.278-1.592v3.176c0,.329.329.463.62.29l2.6-1.537c.282-.157.259-.518-.047-.706l-2.557-1.514A.381.381,0,0,0,28.422,15.009Z" transform="translate(-5.067 -2.484)" fill="#fff"/>
  </g>
</svg>
